<svg width="179" height="157" viewBox="0 0 179 157" fill="none" xmlns="http://www.w3.org/2000/svg">
<path d="M151.26 29H28C22.4772 29 18 33.4771 18 39V145.87C18 151.393 22.4772 155.87 28 155.87H151.26C156.783 155.87 161.26 151.393 161.26 145.87V39C161.26 33.4771 156.783 29 151.26 29Z" fill="#E4FBFF" stroke="#2D2D2D" stroke-width="2" stroke-miterlimit="10"/>
<path d="M56.7897 116.821C54.5394 114.559 52.2244 113.282 49.2199 112.645C44.2562 111.592 39.1344 113.209 35.6074 116.943C33.5012 119.173 32.5919 120.773 31.9073 123.453C30.546 128.785 31.977 133.935 35.9109 137.859C38.861 140.802 42.2351 142.154 46.526 142.115C54.614 142.041 61.1347 135.389 61.1511 127.194C61.1594 123.187 59.7211 119.766 56.7897 116.821Z" fill="#B0AFFD"/>
<path d="M147.745 126.386C147.384 119.627 142.584 114.066 135.886 112.645C133.704 112.182 132.052 112.185 129.884 112.655C124.466 113.832 119.927 118.155 118.583 123.417C117.213 128.783 118.648 133.996 122.559 137.859C125.496 140.759 128.852 142.129 132.981 142.111C137.111 142.093 140.442 140.714 143.345 137.822C146.57 134.609 147.988 130.923 147.745 126.386Z" fill="#B0AFFD"/>
<circle cx="66.0451" cy="40.4714" r="14.0451" fill="#F7D047" stroke="#2D2D2D" stroke-width="3"/>
<path fill-rule="evenodd" clip-rule="evenodd" d="M42.1267 38.3828C39.3102 38.3828 39.3213 38.3594 39.3213 44.3031C39.3213 49.1555 39.3264 49.2012 39.951 49.8265C40.5189 50.3955 40.79 50.4572 42.7256 50.4572H44.8708L62.2322 66.3971L79.5932 82.3368V109.828C79.5932 119.878 79.6102 120.237 80.1062 120.734C80.8091 121.438 81.2405 121.388 83.405 120.349C84.4351 119.854 85.3878 119.45 85.5217 119.45C85.6661 119.45 85.7359 120.731 85.6933 122.597L85.6212 125.744H80.3628H64.1043L64.0235 124.973C63.5987 120.917 60.9762 116.159 57.7029 113.507C49.6787 107.004 38.0819 108.37 31.9491 116.539C24.5388 126.411 29.2596 140.718 41.1467 144.413C42.7576 144.914 43.6131 145.009 46.4052 144.999C49.3684 144.988 49.9683 144.908 51.7919 144.274C54.6719 143.273 56.3508 142.241 58.5814 140.103C61.4084 137.392 63.1386 134.232 63.8198 130.533L64.1343 128.827L81.3888 128.758C86.7565 128.699 87.7089 128.629 88.107 128.268C88.5246 127.89 88.571 127.343 88.571 122.803V117.758L89.9875 117.062C90.7665 116.68 91.4591 116.367 91.5266 116.367C91.594 116.367 91.6492 118.95 91.6492 122.107C91.6492 127.319 91.692 127.887 92.1132 128.268C92.5113 128.629 93.4637 128.699 98.8314 128.758L115.086 128.827L115.4 130.533C116.081 134.229 117.812 137.393 120.631 140.094C122.815 142.187 124.621 143.293 127.491 144.297C129.274 144.92 129.84 144.992 132.943 144.992C136.066 144.992 136.608 144.922 138.458 144.278C143.197 142.63 146.567 139.738 148.829 135.378C152.457 128.384 151.088 120.074 145.378 114.427C138.051 107.18 125.58 107.896 119.085 115.937C117.097 118.398 115.496 122.118 115.197 124.973L115.116 125.744H99.8575H94.599L94.5298 120.289L94.4605 114.835L97.2765 113.42C98.8253 112.643 100.213 111.781 100.36 111.506C100.522 111.202 100.627 108.741 100.627 105.22V82.3368L117.988 66.3971L135.349 50.4572H137.495C139.43 50.4572 139.701 50.3955 140.269 49.8265C140.894 49.2012 140.899 49.1555 140.899 44.3031C140.899 38.3594 140.91 38.3828 138.094 38.3828H42.1267ZM137.821 47.3744V44.42V41.4656H90.1101H42.3994V44.42V47.3744H90.1101H137.821ZM56.7892 116.82C54.5388 114.559 52.2238 113.282 49.2193 112.645C44.2556 111.592 39.1339 113.209 35.6069 116.943C33.5007 119.173 32.5914 120.773 31.9067 123.453C30.5454 128.785 31.9765 133.934 35.9103 137.859C38.8605 140.801 42.2346 142.154 46.5255 142.115C54.6135 142.041 61.1342 135.389 61.1506 127.194C61.1588 123.187 59.7206 119.766 56.7892 116.82ZM147.745 126.386C147.383 119.627 142.583 114.065 135.886 112.645C133.703 112.182 132.051 112.184 129.884 112.655C124.466 113.832 119.926 118.155 118.582 123.417C117.212 128.783 118.647 133.996 122.558 137.859C125.495 140.759 128.852 142.129 132.98 142.111C137.111 142.093 140.441 140.714 143.345 137.822C146.569 134.609 147.988 130.923 147.745 126.386Z" fill="#2D2D2D"/>
<path fill-rule="evenodd" clip-rule="evenodd" d="M131.917 114.312C131.572 114.657 131.399 115.183 131.389 115.917C131.375 116.972 131.33 117.031 130.048 117.66C127.58 118.871 126.393 122.038 127.41 124.702C127.889 125.959 129.73 127.819 130.748 128.075L131.404 128.24V131.352V134.464L130.857 133.916C130.557 133.615 130.17 132.809 129.998 132.125C129.589 130.501 128.726 129.918 127.714 130.582C126.362 131.469 127.06 134.41 129.049 136.206C129.632 136.732 130.4 137.236 130.757 137.326C131.318 137.467 131.405 137.631 131.408 138.552C131.413 139.767 131.558 140.06 132.366 140.486C132.811 140.721 133.076 140.721 133.52 140.486C134.329 140.06 134.474 139.767 134.479 138.552C134.482 137.627 134.568 137.467 135.139 137.324C136.157 137.067 137.998 135.208 138.477 133.951C139.487 131.302 138.32 128.168 135.821 126.819L134.482 126.096L134.491 123.094L134.499 120.092L135.12 120.799C135.462 121.189 135.82 121.94 135.915 122.469C136.142 123.729 136.443 124.074 137.317 124.074C138.463 124.074 138.919 123.419 138.781 121.973C138.603 120.122 137.47 118.461 135.838 117.66C134.557 117.031 134.512 116.972 134.497 115.917C134.481 114.708 133.813 113.798 132.943 113.798C132.661 113.798 132.199 114.029 131.917 114.312ZM130.901 124.725C131.398 125.175 131.404 125.149 131.404 122.701C131.404 121.337 131.364 120.22 131.316 120.22C131.088 120.22 130.385 121.196 130.132 121.863C129.794 122.755 130.137 124.032 130.901 124.725ZM134.986 133.973C135.813 133.223 136.107 131.969 135.689 130.968C135.492 130.497 135.14 129.952 134.907 129.759C134.517 129.434 134.482 129.61 134.482 131.918C134.482 134.397 134.489 134.424 134.986 133.973Z" fill="#2D2D2D"/>
<path fill-rule="evenodd" clip-rule="evenodd" d="M45.2509 114.312C44.9059 114.657 44.733 115.183 44.7227 115.917C44.7084 116.972 44.6632 117.031 43.3819 117.66C40.9133 118.871 39.7269 122.038 40.7432 124.702C41.2224 125.959 43.0631 127.819 44.0814 128.075L44.7379 128.24V131.352V134.464L44.191 133.916C43.8903 133.615 43.5035 132.809 43.3312 132.125C42.9223 130.501 42.0599 129.918 41.048 130.582C39.6957 131.469 40.3936 134.41 42.3826 136.206C42.9656 136.732 43.7339 137.236 44.0902 137.326C44.6514 137.467 44.7384 137.631 44.7417 138.552C44.7463 139.767 44.8912 140.06 45.6998 140.486C46.1446 140.721 46.4093 140.721 46.8541 140.486C47.6626 140.06 47.8075 139.767 47.8121 138.552C47.8155 137.627 47.9014 137.467 48.4724 137.324C49.4907 137.067 51.3314 135.208 51.8106 133.951C52.8207 131.302 51.6539 128.168 49.1547 126.819L47.816 126.096L47.8242 123.094L47.8321 120.092L48.4539 120.799C48.7958 121.189 49.1537 121.94 49.2488 122.469C49.4753 123.729 49.7767 124.074 50.6506 124.074C51.7967 124.074 52.2531 123.419 52.1143 121.973C51.9368 120.122 50.8033 118.461 49.1719 117.66C47.8906 117.031 47.8455 116.972 47.8311 115.917C47.8144 114.708 47.147 113.798 46.2769 113.798C45.9948 113.798 45.533 114.029 45.2509 114.312ZM44.2346 124.725C44.7314 125.175 44.7379 125.149 44.7379 122.701C44.7379 121.337 44.6981 120.22 44.6494 120.22C44.4218 120.22 43.719 121.196 43.4656 121.863C43.1272 122.755 43.4704 124.032 44.2346 124.725ZM48.3192 133.973C49.147 133.223 49.4404 131.969 49.0226 130.968C48.8258 130.497 48.4739 129.952 48.2405 129.759C47.8503 129.434 47.816 129.61 47.816 131.918C47.816 134.397 47.8224 134.424 48.3192 133.973Z" fill="#2D2D2D"/>
<path fill-rule="evenodd" clip-rule="evenodd" d="M3.67676 113.994C3.14502 114.35 2.86106 115.2 3.07986 115.78C3.19786 116.093 4.4409 117.113 5.84221 118.048C8.63355 119.909 9.58135 120.114 10.1436 118.979C10.6669 117.922 10.2567 117.395 7.48798 115.567C4.89108 113.853 4.27109 113.597 3.67676 113.994ZM170.695 115.592C168.106 117.301 167.977 117.428 167.977 118.28C167.977 119.21 168.486 119.707 169.437 119.707C170.138 119.707 174.896 116.428 175.142 115.777C175.48 114.879 174.774 113.81 173.837 113.802C173.604 113.8 172.19 114.605 170.695 115.592ZM0.407549 124.801C-0.12753 125.393 -0.136764 126.23 0.386003 126.753C0.72126 127.089 1.53286 127.157 5.20838 127.157C8.30368 127.157 9.72012 127.064 9.93559 126.848C10.4368 126.347 10.316 124.902 9.74731 124.597C9.4631 124.444 7.45284 124.331 5.04165 124.331C1.28917 124.331 0.7859 124.382 0.407549 124.801ZM168.285 124.639C168.116 124.809 167.977 125.306 167.977 125.744C167.977 127.095 168.198 127.157 173.012 127.157C177.78 127.157 178.238 127.035 178.238 125.765C178.238 124.487 177.661 124.331 172.946 124.331C169.902 124.331 168.5 124.424 168.285 124.639ZM5.69036 133.6C3.21017 135.288 2.91903 135.626 3.04857 136.662C3.11116 137.164 3.80296 137.69 4.40114 137.69C5.11655 137.69 10.2383 134.156 10.2737 133.638C10.3558 132.44 9.83504 131.768 8.84773 131.796C8.55711 131.804 7.13656 132.616 5.69036 133.6ZM168.38 132.185C168.159 132.407 167.977 132.924 167.977 133.335C167.977 133.997 168.283 134.287 170.662 135.886C173.395 137.722 173.984 137.939 174.69 137.369C175.923 136.373 175.381 135.473 172.349 133.483C169.643 131.707 169.051 131.514 168.38 132.185Z" fill="#F5F6FD"/>
<path d="M114.735 65.3475C123.271 57.5398 130.423 50.9952 130.63 50.8043C130.945 50.5128 124.476 50.4573 90.114 50.4573C67.6237 50.4573 49.3323 50.5549 49.4665 50.6741C52.1821 53.0915 81.0271 79.5735 81.7097 80.2758L82.6716 81.2657V107.88V117.396L90.1104 113.669L97.5491 109.943V104.159V81.278L98.3828 80.4107C98.8412 79.9336 106.2 73.1553 114.735 65.3475Z" fill="#B5F6FF"/>
<path d="M59.8855 53.6932C59.4484 53.9999 59.3209 54.3064 59.3797 54.9088C59.4471 55.6027 60.6504 56.8117 68.0469 63.6188C74.9552 69.9766 76.773 71.5232 77.3394 71.5232C78.1877 71.5232 78.9503 70.5261 78.7017 69.7416C78.5709 69.3292 70.3098 61.57 62.2213 54.263C61.0121 53.1704 60.7294 53.1013 59.8855 53.6932Z" fill="#005461"/>
<path fill-rule="evenodd" clip-rule="evenodd" d="M137.821 47.3744V44.4201V41.4657H90.1102H42.3994V44.4201V47.3744H90.1102H137.821Z" fill="#0FB6CD"/>
<circle cx="109.66" cy="23.373" r="21.373" fill="#F7D047" stroke="#2D2D2D" stroke-width="3"/>
</svg>
