<svg width="48" height="34" viewBox="0 0 48 34" fill="none" xmlns="http://www.w3.org/2000/svg">
<path fill-rule="evenodd" clip-rule="evenodd" d="M33.6963 1.66082C30.6232 1.05673 27.4379 1.36684 24.5436 2.55161C21.6493 3.73635 19.1769 5.7421 17.4379 8.31398C15.699 10.8858 14.7714 13.9085 14.7714 17C14.7714 17.3756 14.467 17.68 14.0914 17.68C13.7159 17.68 13.4114 17.3756 13.4114 17C13.4114 15.055 13.7489 13.1355 14.3989 11.3219C13.7528 11.2087 13.0974 11.1518 12.4403 11.152H12.44C9.55188 11.152 6.78363 12.2859 4.74384 14.3017C2.70432 16.3172 1.56001 19.0491 1.56001 21.896C1.56001 24.7429 2.70431 27.4748 4.74384 29.4903C6.78363 31.5061 9.55188 32.64 12.44 32.64H30.6057C33.7392 32.64 36.8017 31.7217 39.4059 30.0021C42.0099 28.2826 44.0383 25.8395 45.2358 22.9825C46.4332 20.1257 46.7464 16.9826 46.1361 13.9503C45.5257 10.918 44.019 8.13152 41.8051 5.94369C39.5911 3.75578 36.7694 2.26491 33.6963 1.66082ZM14.9204 10.0359C15.3114 9.17486 15.776 8.34382 16.3113 7.55222C18.2016 4.75648 20.8875 2.57868 24.0284 1.29298C27.1692 0.00729974 30.6249 -0.32897 33.9587 0.32636C37.2925 0.981698 40.3559 2.59948 42.7611 4.97635C45.1663 7.35332 46.8053 10.3827 47.4693 13.682C48.1334 16.9812 47.7925 20.4009 46.4901 23.5083C45.1877 26.6155 42.9827 29.27 40.1553 31.137C37.3279 33.004 34.0047 34 30.6057 34H12.44C9.19634 34 6.08392 32.7267 3.78788 30.4577C1.49156 28.1884 0.200012 25.1088 0.200012 21.896C0.200012 18.6832 1.49156 15.6037 3.78788 13.3343C6.08387 11.0654 9.19618 9.79207 12.4398 9.79201M14.9204 10.0359C14.1042 9.87351 13.2734 9.79171 12.44 9.79201L14.9204 10.0359Z" fill="white"/>
<path fill-rule="evenodd" clip-rule="evenodd" d="M35.4927 11.5928C35.8683 11.5928 36.1727 11.8972 36.1727 12.2728V15.4603C36.1727 15.8358 35.8683 16.1403 35.4927 16.1403H32.3052C31.9297 16.1403 31.6252 15.8358 31.6252 15.4603C31.6252 15.0847 31.9297 14.7803 32.3052 14.7803H34.8127V12.2728C34.8127 11.8972 35.1172 11.5928 35.4927 11.5928Z" fill="white"/>
<path fill-rule="evenodd" clip-rule="evenodd" d="M29.0978 12.1774C28.4199 12.1774 27.7487 12.311 27.1225 12.5707C26.4964 12.8303 25.9275 13.2108 25.4485 13.6905C25.1832 13.9563 24.7526 13.9566 24.4869 13.6912C24.2211 13.4259 24.2208 12.9953 24.4862 12.7296C25.0915 12.1234 25.8103 11.6425 26.6016 11.3144C27.3929 10.9863 28.2412 10.8174 29.0978 10.8174C29.9545 10.8174 30.8027 10.9863 31.594 11.3144C32.3851 11.6424 33.1037 12.1231 33.7089 12.729C33.7091 12.7292 33.7093 12.7294 33.7095 12.7296L35.9662 14.9797C36.2322 15.2448 36.2328 15.6754 35.9676 15.9413C35.7025 16.2073 35.2719 16.2079 35.006 15.9428L32.7482 13.6916L32.7471 13.6905C32.2681 13.2108 31.6993 12.8303 31.0731 12.5707C30.4469 12.311 29.7757 12.1774 29.0978 12.1774Z" fill="white"/>
<path fill-rule="evenodd" clip-rule="evenodd" d="M22.0295 19.2205C22.0295 18.845 22.334 18.5405 22.7095 18.5405H25.897C26.2726 18.5405 26.577 18.845 26.577 19.2205C26.577 19.5961 26.2726 19.9005 25.897 19.9005H23.3895V22.408C23.3895 22.7836 23.0851 23.088 22.7095 23.088C22.334 23.088 22.0295 22.7836 22.0295 22.408V19.2205Z" fill="white"/>
<path fill-rule="evenodd" clip-rule="evenodd" d="M22.228 18.7404C22.4932 18.4745 22.9237 18.4738 23.1897 18.739L25.4485 20.9912C25.9275 21.4709 26.4964 21.8514 27.1225 22.1111C27.7487 22.3707 28.4199 22.5044 29.0978 22.5044C29.7757 22.5044 30.4469 22.3707 31.0731 22.1111C31.6993 21.8514 32.2681 21.4709 32.7471 20.9912C33.0125 20.7255 33.443 20.7252 33.7088 20.9905C33.9745 21.2559 33.9748 21.6864 33.7095 21.9522C33.1042 22.5584 32.3853 23.0393 31.594 23.3674C30.8027 23.6955 29.9545 23.8644 29.0978 23.8644C28.2412 23.8644 27.3929 23.6955 26.6016 23.3674C25.8105 23.0393 25.0919 22.5586 24.4867 21.9527C24.4865 21.9525 24.4863 21.9523 24.4862 21.9522L22.2294 19.7021C21.9635 19.4369 21.9628 19.0064 22.228 18.7404Z" fill="white"/>
</svg>
