<svg width="48" height="34" viewBox="0 0 48 34" fill="none" xmlns="http://www.w3.org/2000/svg">
<path fill-rule="evenodd" clip-rule="evenodd" d="M0.461517 4.57692C0.461517 2.04916 2.51068 0 5.03844 0H42.9615C45.4893 0 47.5384 2.04916 47.5384 4.57692V29.4231C47.5384 31.9508 45.4893 34 42.9615 34H5.03844C2.51068 34 0.461517 31.9508 0.461517 29.4231V4.57692ZM5.03844 1.30769C3.23289 1.30769 1.76921 2.77138 1.76921 4.57692V29.4231C1.76921 31.2286 3.23289 32.6923 5.03844 32.6923H42.9615C44.7671 32.6923 46.2307 31.2286 46.2307 29.4231V4.57692C46.2307 2.77138 44.7671 1.30769 42.9615 1.30769H5.03844Z" fill="white"/>
<path fill-rule="evenodd" clip-rule="evenodd" d="M12.8691 9.34532C13.1245 9.08997 13.5385 9.08997 13.7938 9.34532L16.2765 11.828C18.492 10.423 21.12 9.60938 23.9364 9.60938C26.7528 9.60938 29.3808 10.423 31.5963 11.828L34.079 9.34532C34.3343 9.08997 34.7483 9.08997 35.0037 9.34532C35.259 9.60066 35.259 10.0147 35.0037 10.27L32.6834 12.5902C36.0728 15.2083 38.2574 19.3142 38.2574 23.9304C38.2574 24.2915 37.9647 24.5843 37.6036 24.5843H10.2692C9.90809 24.5843 9.61536 24.2915 9.61536 23.9304C9.61536 19.3142 11.8 15.2083 15.1894 12.5902L12.8691 10.27C12.6138 10.0147 12.6138 9.60066 12.8691 9.34532ZM23.9364 10.9171C21.1977 10.9171 18.6584 11.7624 16.5626 13.2063C13.3227 15.4385 11.1459 19.0984 10.9392 23.2766H36.9336C36.7269 19.0984 34.5501 15.4385 31.3102 13.2063C29.2144 11.7624 26.6751 10.9171 23.9364 10.9171Z" fill="white"/>
<path d="M29.4037 18.0083C29.4037 18.7631 28.7918 19.375 28.037 19.375C27.2822 19.375 26.6703 18.7631 26.6703 18.0083C26.6703 17.2535 27.2822 16.6416 28.037 16.6416C28.7918 16.6416 29.4037 17.2535 29.4037 18.0083Z" fill="white"/>
<path d="M21.2025 18.0083C21.2025 18.7631 20.5906 19.375 19.8358 19.375C19.081 19.375 18.4691 18.7631 18.4691 18.0083C18.4691 17.2535 19.081 16.6416 19.8358 16.6416C20.5906 16.6416 21.2025 17.2535 21.2025 18.0083Z" fill="white"/>
</svg>
