<svg width="48" height="46" viewBox="0 0 48 46" fill="none" xmlns="http://www.w3.org/2000/svg">
<path fill-rule="evenodd" clip-rule="evenodd" d="M-0.00115967 5.17121C-0.00115967 2.52018 2.14793 0.371094 4.79896 0.371094H43.1999C45.8509 0.371094 48 2.52018 48 5.17121V38.0863C48 40.7373 45.8509 42.8864 43.1999 42.8864H41.1427C40.764 42.8864 40.457 42.5794 40.457 42.2007C40.457 41.822 40.764 41.515 41.1427 41.515H43.1999C45.0935 41.515 46.6286 39.9799 46.6286 38.0863V5.17121C46.6286 3.27762 45.0935 1.74256 43.1999 1.74256H4.79896C2.90536 1.74256 1.3703 3.27762 1.3703 5.17121V38.0863C1.3703 39.9799 2.90536 41.515 4.79896 41.515H30.8567C31.2355 41.515 31.5425 41.822 31.5425 42.2007C31.5425 42.5794 31.2355 42.8864 30.8567 42.8864H4.79896C2.14793 42.8864 -0.00115967 40.7373 -0.00115967 38.0863V5.17121Z" fill="white"/>
<path fill-rule="evenodd" clip-rule="evenodd" d="M19.7313 21.1967C19.9701 21.4906 19.9255 21.9225 19.6315 22.1613L14.8007 26.0864L19.6315 30.0114C19.9255 30.2502 19.9701 30.6821 19.7313 30.976C19.4925 31.27 19.0606 31.3146 18.7667 31.0758L13.2808 26.6186C13.1206 26.4884 13.0275 26.2929 13.0275 26.0864C13.0275 25.8799 13.1206 25.6844 13.2808 25.5542L18.7667 21.0969C19.0606 20.8581 19.4925 20.9028 19.7313 21.1967Z" fill="white"/>
<path fill-rule="evenodd" clip-rule="evenodd" d="M25.5041 17.8704C25.8755 17.9447 26.1163 18.3059 26.042 18.6773L22.9562 34.1062C22.882 34.4776 22.5207 34.7184 22.1493 34.6442C21.778 34.5699 21.5371 34.2086 21.6114 33.8373L24.6972 18.4083C24.7715 18.0369 25.1327 17.7961 25.5041 17.8704Z" fill="white"/>
<path fill-rule="evenodd" clip-rule="evenodd" d="M27.9248 21.1967C27.6859 21.4906 27.7306 21.9225 28.0245 22.1613L32.8554 26.0864L28.0245 30.0114C27.7306 30.2502 27.6859 30.6821 27.9248 30.976C28.1636 31.27 28.5954 31.3146 28.8894 31.0758L34.3752 26.6186C34.5355 26.4884 34.6285 26.2929 34.6285 26.0864C34.6285 25.8799 34.5355 25.6844 34.3752 25.5542L28.8894 21.0969C28.5954 20.8581 28.1636 20.9028 27.9248 21.1967Z" fill="white"/>
<path fill-rule="evenodd" clip-rule="evenodd" d="M39.0762 38.2678C39.3544 38.5247 39.3718 38.9585 39.1149 39.2368L33.4181 45.4084C33.1612 45.6867 32.7274 45.704 32.4491 45.4471C32.1708 45.1903 32.1534 44.7564 32.4103 44.4781L38.1072 38.3066C38.364 38.0283 38.7979 38.0109 39.0762 38.2678Z" fill="white"/>
<path fill-rule="evenodd" clip-rule="evenodd" d="M32.4503 38.2678C32.1721 38.5247 32.1547 38.9585 32.4116 39.2368L38.1084 45.4084C38.3653 45.6867 38.7991 45.704 39.0774 45.4471C39.3557 45.1903 39.3731 44.7564 39.1162 44.4781L33.4193 38.3066C33.1625 38.0283 32.7286 38.0109 32.4503 38.2678Z" fill="white"/>
<path fill-rule="evenodd" clip-rule="evenodd" d="M0.682922 12.0288H47.3126V13.4003H0.682922V12.0288Z" fill="white"/>
<path fill-rule="evenodd" clip-rule="evenodd" d="M5.82706 5.8573C5.25898 5.8573 4.79846 6.31782 4.79846 6.8859C4.79846 7.45398 5.25898 7.9145 5.82706 7.9145C6.39514 7.9145 6.85566 7.45398 6.85566 6.8859C6.85566 6.31782 6.39514 5.8573 5.82706 5.8573ZM3.427 6.8859C3.427 5.56038 4.50155 4.48584 5.82706 4.48584C7.15258 4.48584 8.22712 5.56038 8.22712 6.8859C8.22712 8.21142 7.15258 9.28596 5.82706 9.28596C4.50155 9.28596 3.427 8.21142 3.427 6.8859Z" fill="white"/>
<path fill-rule="evenodd" clip-rule="evenodd" d="M13.3714 5.8573C12.8034 5.8573 12.3428 6.31782 12.3428 6.8859C12.3428 7.45398 12.8034 7.9145 13.3714 7.9145C13.9395 7.9145 14.4 7.45398 14.4 6.8859C14.4 6.31782 13.9395 5.8573 13.3714 5.8573ZM10.9714 6.8859C10.9714 5.56038 12.0459 4.48584 13.3714 4.48584C14.697 4.48584 15.7715 5.56038 15.7715 6.8859C15.7715 8.21142 14.697 9.28596 13.3714 9.28596C12.0459 9.28596 10.9714 8.21142 10.9714 6.8859Z" fill="white"/>
<path fill-rule="evenodd" clip-rule="evenodd" d="M20.9138 5.8573C20.3457 5.8573 19.8852 6.31782 19.8852 6.8859C19.8852 7.45398 20.3457 7.9145 20.9138 7.9145C21.4819 7.9145 21.9424 7.45398 21.9424 6.8859C21.9424 6.31782 21.4819 5.8573 20.9138 5.8573ZM18.5137 6.8859C18.5137 5.56038 19.5883 4.48584 20.9138 4.48584C22.2393 4.48584 23.3139 5.56038 23.3139 6.8859C23.3139 8.21142 22.2393 9.28596 20.9138 9.28596C19.5883 9.28596 18.5137 8.21142 18.5137 6.8859Z" fill="white"/>
</svg>
