<svg width="48" height="48" viewBox="0 0 48 48" fill="none" xmlns="http://www.w3.org/2000/svg">
<path fill-rule="evenodd" clip-rule="evenodd" d="M35.1091 2.43921C33.784 1.04976 31.6014 1.01149 30.2297 2.35275L27.567 4.95644C28.1001 5.24092 28.6154 5.63195 28.9867 6.02125C30.5694 7.68079 30.5241 10.3222 28.8847 11.9253C27.2405 13.5331 24.6172 13.4864 23.0299 11.822C22.6618 11.4361 22.2975 10.9075 22.0364 10.3645L19.3082 13.0322C17.9317 14.3781 17.8931 16.603 19.2228 17.9973L21.8181 20.7186C22.0977 20.1853 22.48 19.67 22.8611 19.2973C24.5053 17.6896 27.1286 17.7362 28.7159 19.4006C30.2986 21.0601 30.2534 23.7016 28.6139 25.3047C28.3502 25.5625 28.0615 25.7634 27.817 25.9336C27.7786 25.9603 27.7412 25.9863 27.7052 26.0116C27.6947 26.019 27.6839 26.0262 27.6729 26.033C27.6729 26.033 27.6728 26.0331 27.6728 26.0331C27.5078 26.1358 27.335 26.2324 27.1588 26.3187L29.7715 29.0582C29.7716 29.0583 29.7717 29.0584 29.7718 29.0585M26.9325 24.8784C26.735 25 26.5266 25.1053 26.306 25.198L26.306 25.198L26.2975 25.2017C25.9543 25.3514 25.737 25.6522 25.6539 25.9555C25.5696 26.2631 25.6013 26.6703 25.8986 26.9843L25.9003 26.9862L28.7794 30.005C30.1079 31.398 30.0693 33.6208 28.6941 34.9656L26.1284 37.4744C25.8674 36.9314 25.5032 36.4027 25.135 36.0167C23.5477 34.3523 20.9245 34.3056 19.2802 35.9134C17.6408 37.5165 17.5955 40.1579 19.1782 41.8175C19.5495 42.2067 20.0647 42.5978 20.5978 42.8824L17.7702 45.6472C16.3986 46.9885 14.216 46.9502 12.8909 45.5608L10.28 42.8231C10.8225 42.5577 11.3508 42.1852 11.7352 41.8093C13.3746 40.2062 13.4199 37.5647 11.8372 35.9052C10.2499 34.2408 7.62659 34.1941 5.98235 35.8019C5.60125 36.1746 5.219 36.6899 4.93936 37.2232L2.34407 34.5019C1.01435 33.1076 1.053 30.8827 2.42945 29.5368L5.50462 26.5298L5.02521 26.0395L5.50462 26.5298C5.79775 26.2432 5.86077 25.8568 5.7933 25.5435C5.72685 25.2349 5.52323 24.933 5.19299 24.7728C4.74551 24.5558 4.2894 24.2186 3.99093 23.9056C2.92597 22.789 2.957 21.0065 4.05928 19.9286C5.15677 18.8555 6.90247 18.886 7.96281 19.9978C8.26134 20.3109 8.5791 20.785 8.77851 21.2472C8.9229 21.5819 9.21306 21.8019 9.52293 21.8818C9.83846 21.9633 10.2293 21.9098 10.5242 21.6215L13.351 18.8573C14.7227 17.5161 16.9052 17.5544 18.2304 18.9438L21.1062 21.9592C21.4114 22.2793 21.8273 22.3265 22.1449 22.2459C22.4575 22.1665 22.7648 21.946 22.9167 21.5969C23.1264 21.1148 23.4858 20.6046 23.8199 20.2779C24.9174 19.2047 26.6631 19.2353 27.7234 20.3471C28.7884 21.4638 28.7574 23.2463 27.6551 24.3241C27.479 24.4963 27.2923 24.6268 27.0438 24.8005C27.008 24.8255 26.971 24.8514 26.9325 24.8784ZM17.0056 16.6724C16.6322 15.0567 17.0839 13.289 18.3494 12.0516L21.3682 9.09976C21.6846 8.79032 22.102 8.75802 22.4165 8.84976C22.726 8.94006 23.0253 9.17113 23.1649 9.52516C23.3579 10.0145 23.6996 10.5372 24.0223 10.8755C25.0827 11.9874 26.8284 12.0179 27.9259 10.9447C29.0282 9.8669 29.0592 8.08441 27.9942 6.96775C27.6715 6.62939 27.1685 6.26636 26.6944 6.05502L26.9736 5.42872L26.6944 6.05502C26.3444 5.89901 26.1298 5.58697 26.0533 5.27802C25.9758 4.96498 26.0193 4.5517 26.3336 4.24439L26.813 4.73466L26.3336 4.24439L29.2709 1.3722C31.1893 -0.503684 34.2495 -0.449284 36.1015 1.49271L38.6969 4.21411C38.9765 3.68078 39.3587 3.16545 39.7398 2.79274L40.2192 3.28302L39.7398 2.79274C41.3841 1.18495 44.0073 1.23163 45.5946 2.89601C47.1773 4.55555 47.1321 7.19696 45.4926 8.80006C45.1083 9.17591 44.58 9.54849 44.0376 9.81405L46.6484 12.5516C48.4958 14.4888 48.443 17.5726 46.5293 19.4438L43.9499 21.966C44.483 22.2505 44.9983 22.6415 45.3696 23.0308C46.9523 24.6904 46.907 27.3318 45.2676 28.9349C43.6233 30.5427 41.0001 30.496 39.4128 28.8316C39.0447 28.4457 38.6804 27.917 38.4193 27.374L35.6078 30.1232C34.3424 31.3606 32.5802 31.7581 30.9957 31.328C31.369 32.9427 30.9176 34.7094 29.6529 35.9461L26.7966 38.7391C26.4801 39.0486 26.0627 39.0809 25.7482 38.9891C25.4387 38.8988 25.1394 38.6677 24.9998 38.3136C24.8069 37.8242 24.4653 37.3015 24.1426 36.9632C23.0822 35.8513 21.3365 35.8208 20.239 36.894C19.1368 37.9718 19.1057 39.7543 20.1707 40.871C20.4934 41.2094 20.9964 41.5725 21.4705 41.7839C21.8204 41.9399 22.035 42.2519 22.1114 42.5609C22.1889 42.8739 22.1454 43.2872 21.8311 43.5945L18.7291 46.6278C16.8107 48.5037 13.7505 48.4493 11.8984 46.5073L9.02248 43.4917L9.51871 43.0185L9.02248 43.4917C8.71929 43.1738 8.6899 42.7594 8.77821 42.4491C8.86535 42.1429 9.09074 41.8384 9.44614 41.6948C9.92714 41.5003 10.4423 41.1554 10.7764 40.8287C11.8786 39.7509 11.9097 37.9684 10.8447 36.8517C9.78436 35.7399 8.03866 35.7093 6.94117 36.7825C6.60708 37.1092 6.24761 37.6194 6.03792 38.1015C5.88607 38.4506 5.57878 38.6711 5.26618 38.7505C4.94854 38.8311 4.5327 38.7839 4.22741 38.4638L1.35162 35.4484C-0.495846 33.5112 -0.442983 30.4274 1.47064 28.5562L1.93606 29.0322L1.47064 28.5562L4.2597 25.829C3.78574 25.5557 3.33424 25.2042 2.99848 24.8521C1.41578 23.1926 1.46101 20.5512 3.10046 18.9481C4.7447 17.3403 7.36796 17.387 8.95526 19.0513C9.28776 19.4 9.61539 19.863 9.86708 20.3459L12.3922 17.8768C13.6579 16.6391 15.4207 16.2417 17.0056 16.6724ZM29.7723 29.059C31.0977 30.4457 33.2783 30.483 34.649 29.1427L37.7511 26.1093C38.0675 25.7999 38.4849 25.7676 38.7994 25.8593C39.1089 25.9496 39.4082 26.1807 39.5478 26.5347C39.7408 27.0241 40.0825 27.5467 40.4052 27.8851C41.4656 28.9969 43.2113 29.0275 44.3088 27.9543C45.411 26.8765 45.4421 25.094 44.3771 23.9773C44.0544 23.639 43.5514 23.2759 43.0773 23.0646C42.7273 22.9086 42.5127 22.5965 42.4362 22.2876C42.3587 21.9746 42.4022 21.5613 42.7165 21.254L45.5705 18.4632C46.947 17.1173 46.9856 14.8924 45.6559 13.4981L42.7801 10.4827C42.4769 10.1648 42.4475 9.75041 42.5358 9.44012C42.6229 9.13393 42.8483 8.82942 43.2037 8.68573C43.6846 8.49126 44.1997 8.1462 44.5338 7.81951L44.9059 8.20003L44.5338 7.81951C45.6361 6.74166 45.6671 4.95917 44.6022 3.84251C43.5418 2.73067 41.7961 2.70013 40.6987 3.7733L40.2282 3.29215L40.6987 3.7733C40.3646 4.09996 40.0052 4.61016 39.7955 5.09236C39.6437 5.44153 39.3364 5.66207 39.0238 5.74144C38.7062 5.82208 38.2903 5.77491 37.985 5.45479L38.4813 4.98154L37.985 5.45479L35.1091 2.43921" fill="white"/>
</svg>
