<svg width="48" height="48" viewBox="0 0 48 48" fill="none" xmlns="http://www.w3.org/2000/svg">
<path fill-rule="evenodd" clip-rule="evenodd" d="M30.7437 1.68475C30.8677 1.31513 31.2678 1.11599 31.6374 1.23995C32.2311 1.43907 32.8145 1.66076 33.3864 1.90399C33.7452 2.05656 33.9123 2.47107 33.7597 2.82983C33.6072 3.18858 33.1927 3.35572 32.8339 3.20315C32.2958 2.97431 31.747 2.76576 31.1885 2.57845C30.8189 2.45448 30.6198 2.05436 30.7437 1.68475ZM35.7289 3.85609C35.9355 3.52548 36.371 3.42493 36.7016 3.6315C37.7621 4.29415 38.7671 5.03726 39.7079 5.85227C40.0026 6.10753 40.0345 6.55332 39.7793 6.84799C39.524 7.14265 39.0782 7.1746 38.7835 6.91934C37.8977 6.152 36.9517 5.45246 35.9535 4.82877C35.6229 4.62219 35.5223 4.18671 35.7289 3.85609ZM41.34 8.42739C41.6377 8.17566 42.0831 8.2129 42.3348 8.51058C43.1384 9.46085 43.8695 10.4745 44.5196 11.5431C44.7222 11.8761 44.6165 12.3104 44.2834 12.513C43.9503 12.7156 43.5161 12.6099 43.3135 12.2768C42.7017 11.2711 42.0134 10.3169 41.2568 9.42219C41.0051 9.12451 41.0423 8.67913 41.34 8.42739ZM45.2859 14.4942C45.6465 14.3459 46.0589 14.5181 46.2072 14.8786C46.6778 16.0231 47.0625 17.212 47.3532 18.4372C47.4433 18.8165 47.2087 19.197 46.8294 19.287C46.4501 19.377 46.0696 19.1425 45.9796 18.7632C45.7061 17.6106 45.3442 16.4922 44.9015 15.4155C44.7532 15.0549 44.9254 14.6424 45.2859 14.4942ZM47.1715 21.4812C47.5602 21.4512 47.8996 21.742 47.9295 22.1307C47.977 22.7475 48.0012 23.3707 48.0012 23.9994C48.0012 24.5897 47.9799 25.1752 47.9379 25.7551C47.9098 26.1439 47.5718 26.4363 47.183 26.4082C46.7941 26.3801 46.5017 26.0421 46.5299 25.6532C46.5694 25.1072 46.5895 24.5557 46.5895 23.9994C46.5895 23.4069 46.5667 22.8199 46.5219 22.2392C46.492 21.8505 46.7828 21.5111 47.1715 21.4812ZM46.8934 28.3884C47.274 28.473 47.5139 28.8501 47.4293 29.2307C47.1725 30.3855 46.8325 31.5091 46.416 32.5946C46.2764 32.9586 45.8681 33.1405 45.5041 33.0008C45.1401 32.8612 44.9583 32.4529 45.0979 32.0889C45.4898 31.0677 45.8096 30.0107 46.0512 28.9243C46.1358 28.5437 46.5129 28.3038 46.8934 28.3884ZM44.6516 34.8114C44.9911 35.0029 45.1112 35.4334 44.9196 35.773C44.6313 36.2843 44.3247 36.7839 44.0008 37.2711C43.7849 37.5957 43.3468 37.6839 43.0222 37.468C42.6975 37.2522 42.6093 36.814 42.8252 36.4894C43.13 36.0309 43.4186 35.5606 43.69 35.0794C43.8815 34.7399 44.312 34.6199 44.6516 34.8114Z" fill="white"/>
<path d="M9.28922 23.0537H10.7857C10.7292 21.769 11.4492 20.9078 12.6351 20.9078C13.6939 20.9078 14.4422 21.5855 14.4422 22.6302C14.4422 23.4349 14.0469 24.0561 13.0869 24.5502L11.548 25.3267C10.5598 25.8208 9.1904 26.8937 9.20452 28.5878V29.6467H15.9669V28.3478H10.6445C10.6445 27.529 11.4492 26.8796 12.1692 26.5267L13.6233 25.7925C15.148 25.0161 15.9386 23.9431 15.9386 22.6443C15.9386 20.8372 14.5692 19.6514 12.6351 19.6514C10.5457 19.6514 9.21863 20.9643 9.28922 23.0537Z" fill="white"/>
<path d="M21.7143 29.6467H23.1825V27.3314H24.6225V26.0325H23.1825V19.7643H21.5308L16.519 26.0325V27.3314H21.7143V29.6467ZM18.0296 26.0325L21.7143 21.4443V26.0325H18.0296Z" fill="white"/>
<path d="M25.3369 29.6608H26.551L30.9981 19.7643H29.7698L25.3369 29.6608Z" fill="white"/>
<path d="M33.6327 29.6467H35.1009C35.115 28.2208 35.2844 26.9784 36.315 25.2702L38.9691 20.9361V19.7643H31.7974V21.0631H37.3315L35.1291 24.6067C33.8727 26.6255 33.6468 28.0514 33.6327 29.6467Z" fill="white"/>
<path fill-rule="evenodd" clip-rule="evenodd" d="M24 1.41176C11.5249 1.41176 1.41176 11.5249 1.41176 24C1.41176 36.4751 11.5249 46.5882 24 46.5882C29.6078 46.5882 34.7374 44.5455 38.6869 41.1623L35.1783 40.5787C34.7937 40.5147 34.5338 40.1511 34.5978 39.7665C34.6618 39.382 35.0254 39.1221 35.4099 39.186L40.3511 40.0079C40.7096 40.0676 40.9643 40.3897 40.9395 40.7522L40.5866 45.9304C40.5601 46.3193 40.2233 46.6131 39.8344 46.5866C39.4454 46.5601 39.1516 46.2233 39.1781 45.8344L39.4123 42.398C35.2432 45.8941 29.867 48 24 48C10.7452 48 0 37.2548 0 24C0 10.7452 10.7452 0 24 0C25.1095 0 26.2017 0.0753293 27.2718 0.221241C27.6581 0.273909 27.9286 0.629742 27.8759 1.01602C27.8232 1.40229 27.4674 1.67273 27.0811 1.62006C26.074 1.48275 25.0455 1.41176 24 1.41176Z" fill="white"/>
</svg>
