<svg width="48" height="48" viewBox="0 0 48 48" fill="none" xmlns="http://www.w3.org/2000/svg">
<path fill-rule="evenodd" clip-rule="evenodd" d="M16.7554 1.37143C16.6571 1.37143 16.56 1.39255 16.4706 1.43336L1.77237 8.14342C1.52813 8.25492 1.37143 8.49872 1.37143 8.76721V16.871C1.37143 17.2988 1.75889 17.6222 2.17981 17.5457L6.48915 16.7622C7.75191 16.5326 8.91429 17.5027 8.91429 18.7861V45.9429C8.91429 46.3216 9.22129 46.6286 9.6 46.6286H38.4C38.7787 46.6286 39.0857 46.3216 39.0857 45.9429V18.7861C39.0857 17.5027 40.2481 16.5326 41.5109 16.7622L45.8202 17.5457C46.2411 17.6222 46.6286 17.2988 46.6286 16.871V8.76721C46.6286 8.49872 46.4719 8.25492 46.2276 8.14342L31.5294 1.43336C31.44 1.39255 31.3429 1.37143 31.2446 1.37143H16.7554ZM15.9011 0.185785C16.1692 0.0633593 16.4606 0 16.7554 0H31.2446C31.5394 0 31.8308 0.0633589 32.0989 0.185785L46.7972 6.89585C47.5299 7.23036 48 7.96173 48 8.76721V16.871C48 18.1545 46.8376 19.1246 45.5749 18.895L41.2655 18.1115C40.8446 18.0349 40.4571 18.3583 40.4571 18.7861V45.9429C40.4571 47.079 39.5361 48 38.4 48H9.6C8.46387 48 7.54286 47.079 7.54286 45.9429V18.7861C7.54286 18.3583 7.1554 18.0349 6.73448 18.1115L2.42514 18.895C1.16238 19.1246 0 18.1545 0 16.871V8.76721C0 7.96173 0.470095 7.23036 1.20283 6.89585L15.9011 0.185785Z" fill="white"/>
<path fill-rule="evenodd" clip-rule="evenodd" d="M20.5912 15.6049C20.6675 15.2996 20.9418 15.0854 21.2565 15.0854H26.7422C26.9798 15.0854 27.2006 15.2085 27.3255 15.4107C27.4504 15.6128 27.4618 15.8653 27.3555 16.0778L25.1088 20.5712H28.7993C29.054 20.5712 29.2877 20.7123 29.4062 20.9376C29.5248 21.163 29.5087 21.4355 29.3644 21.6454L21.8215 32.6168C21.6336 32.8901 21.277 32.9898 20.9746 32.8534C20.6722 32.717 20.5108 32.3838 20.5912 32.062L22.4354 24.6854H19.1993C18.9882 24.6854 18.7888 24.5882 18.6588 24.4217C18.5289 24.2553 18.4829 24.0383 18.5341 23.8334L20.5912 15.6049ZM21.7919 16.4569L20.0776 23.314H23.3136C23.5248 23.314 23.7242 23.4113 23.8541 23.5777C23.984 23.7442 24.0301 23.9612 23.9789 24.166L22.8427 28.7107L27.4958 21.9426H23.9993C23.7617 21.9426 23.541 21.8195 23.416 21.6174C23.2911 21.4152 23.2797 21.1628 23.386 20.9502L25.6327 16.4569H21.7919Z" fill="white"/>
<path fill-rule="evenodd" clip-rule="evenodd" d="M17.1459 0.686035V4.80032C17.1459 6.69387 18.6809 8.22889 20.5745 8.22889H27.4316C29.3252 8.22889 30.8602 6.69387 30.8602 4.80032V0.686035H32.2316V4.80032C32.2316 7.45129 30.0826 9.60032 27.4316 9.60032H20.5745C17.9235 9.60032 15.7745 7.45129 15.7745 4.80032V0.686035H17.1459Z" fill="white"/>
<path fill-rule="evenodd" clip-rule="evenodd" d="M19.885 0.686035V3.42889C19.885 4.18631 20.499 4.80032 21.2565 4.80032H26.7422C27.4996 4.80032 28.1136 4.18631 28.1136 3.42889V0.686035H29.485V3.42889C29.485 4.94373 28.257 6.17175 26.7422 6.17175H21.2565C19.7416 6.17175 18.5136 4.94373 18.5136 3.42889V0.686035H19.885Z" fill="white"/>
</svg>
