<svg width="202" height="155" viewBox="0 0 202 155" fill="none" xmlns="http://www.w3.org/2000/svg">
<path d="M159.26 14H36C30.4772 14 26 18.4771 26 24V130.87C26 136.393 30.4772 140.87 36 140.87H159.26C164.783 140.87 169.26 136.393 169.26 130.87V24C169.26 18.4771 164.783 14 159.26 14Z" fill="#E4FBFF" stroke="#2D2D2D" stroke-width="2" stroke-miterlimit="10"/>
<path d="M35.876 44.1567V118.44H160.561" stroke="#018294" stroke-width="2" stroke-linecap="round" stroke-linejoin="round"/>
<path d="M67.9289 105.928H48.7938V118.44H67.9289V105.928Z" fill="#0FB6CD" stroke="#018294" stroke-width="2" stroke-miterlimit="10"/>
<path d="M96.1627 87.3132H77.0272V118.427H96.1627V87.3132Z" fill="#0FB6CD" stroke="#018294" stroke-width="2" stroke-miterlimit="10"/>
<path d="M124.384 61.2365H105.248V118.44H124.384V61.2365Z" fill="#0FB6CD" stroke="#018294" stroke-width="2" stroke-miterlimit="10"/>
<path d="M157.819 37H138.684V118.427H157.819V37Z" fill="#0FB6CD" stroke="#018294" stroke-width="2" stroke-miterlimit="10"/>
<path d="M183.16 37.41V14.03" stroke="#F5F6FD" stroke-width="2" stroke-linecap="round" stroke-linejoin="round"/>
<path d="M183.16 7.44V1" stroke="#F5F6FD" stroke-width="2" stroke-linecap="round" stroke-linejoin="round"/>
<path d="M192.63 41.85L200.26 34.9" stroke="#F5F6FD" stroke-width="2" stroke-linecap="round" stroke-linejoin="round"/>
<path d="M182.79 46.89H145.77C142.031 46.89 139 49.921 139 53.66V90.68C139 94.419 142.031 97.45 145.77 97.45H182.79C186.529 97.45 189.56 94.419 189.56 90.68V53.66C189.56 49.921 186.529 46.89 182.79 46.89Z" fill="#F5F6FD" stroke="#2D2D2D" stroke-width="2" stroke-miterlimit="10"/>
<path d="M175.11 70.03H167.89V55.47L153.46 74.32H160.67V88.88L175.11 70.03Z" stroke="#005461" stroke-width="2" stroke-linecap="round" stroke-linejoin="round"/>
<path d="M50.48 44H11.04C5.495 44 1 48.4951 1 54.04V143.21C1 148.755 5.495 153.25 11.04 153.25H50.48C56.025 153.25 60.52 148.755 60.52 143.21V54.04C60.52 48.4951 56.025 44 50.48 44Z" fill="white" stroke="#2D2D2D" stroke-width="2" stroke-miterlimit="10"/>
<path d="M48.5 153.5L12.9598 152.78C9.79076 152.78 6.241 152.241 4 150C1.759 147.759 1.00977 143.999 1.00977 140.83V137.99H60.5298V140.83C60.5298 143.999 59.191 147.759 56.95 150C54.709 152.241 51.67 153.5 48.5 153.5Z" fill="#2D2D2D"/>
<path d="M7.78001 44.14L53.5 44.5C56.6081 44.5 59.55 47.943 59.55 50.91V55.91H2V49.91C2 47.5 6 44.14 7.78001 44.14Z" fill="#2D2D2D"/>
<path d="M48.1293 65.64H13.9993C11.3933 65.64 9.2793 67.7532 9.2793 70.36V114.26C9.2793 116.867 11.3933 118.98 13.9993 118.98H48.1293C50.7363 118.98 52.8493 116.867 52.8493 114.26V70.36C52.8493 67.7532 50.7363 65.64 48.1293 65.64Z" fill="#B5F6FF" stroke="#005461" stroke-width="2" stroke-miterlimit="10"/>
<path d="M30.7696 149.06C32.7966 149.06 34.4396 147.417 34.4396 145.39C34.4396 143.363 32.7966 141.72 30.7696 141.72C28.7426 141.72 27.0996 143.363 27.0996 145.39C27.0996 147.417 28.7426 149.06 30.7696 149.06Z" fill="#F5F6FD" stroke="#005461" stroke-width="2" stroke-miterlimit="10"/>
<path d="M39.0099 126.52C40.0269 126.52 40.8499 125.696 40.8499 124.68C40.8499 123.664 40.0269 122.84 39.0099 122.84C37.9939 122.84 37.1699 123.664 37.1699 124.68C37.1699 125.696 37.9939 126.52 39.0099 126.52Z" fill="#005461"/>
<path d="M45.2306 126.52C46.2466 126.52 47.0706 125.696 47.0706 124.68C47.0706 123.664 46.2466 122.84 45.2306 122.84C44.2146 122.84 43.3906 123.664 43.3906 124.68C43.3906 125.696 44.2146 126.52 45.2306 126.52Z" fill="#005461"/>
<path d="M51.4396 126.52C52.4556 126.52 53.2796 125.696 53.2796 124.68C53.2796 123.664 52.4556 122.84 51.4396 122.84C50.4236 122.84 49.5996 123.664 49.5996 124.68C49.5996 125.696 50.4236 126.52 51.4396 126.52Z" fill="#005461"/>
<path d="M17.5098 78.3101H44.6098" stroke="#005461" stroke-width="2" stroke-linecap="round" stroke-linejoin="round"/>
<path d="M17.5098 86.64H44.6098" stroke="#005461" stroke-width="2" stroke-linecap="round" stroke-linejoin="round"/>
<path d="M17.5098 94.96H44.6098" stroke="#005461" stroke-width="2" stroke-linecap="round" stroke-linejoin="round"/>
<path d="M17.5098 103.29H31.3598" stroke="#005461" stroke-width="2" stroke-linecap="round" stroke-linejoin="round"/>
</svg>
