<svg width="177" height="158" viewBox="0 0 177 158" fill="none" xmlns="http://www.w3.org/2000/svg">
<path d="M142.703 23H11.2974C5.61026 23 1 27.5262 1 33.1095V132.89C1 138.474 5.61026 143 11.2974 143H142.703C148.39 143 153 138.474 153 132.89V33.1095C153 27.5262 148.39 23 142.703 23Z" fill="#E4FBFF" stroke="#2D2D2D" stroke-width="2" stroke-miterlimit="10"/>
<path d="M15 70L15 134L23 134L23 70L15 70Z" fill="#B0AFFD" stroke="#2D2D2D" stroke-width="2" stroke-miterlimit="10"/>
<path d="M69 80L69 134L77 134L77 80L69 80Z" fill="#B0AFFD" stroke="#2D2D2D" stroke-width="2" stroke-miterlimit="10"/>
<path d="M33 104L33 134L41 134L41 104L33 104Z" fill="#B0AFFD" stroke="#2D2D2D" stroke-width="2" stroke-miterlimit="10"/>
<path d="M87 96L87 134L95 134L95 96L87 96Z" fill="#B0AFFD" stroke="#2D2D2D" stroke-width="2" stroke-miterlimit="10"/>
<path d="M51 90L51 134L59 134L59 90L51 90Z" fill="#B0AFFD" stroke="#2D2D2D" stroke-width="2" stroke-miterlimit="10"/>
<path d="M105 117L105 134L113 134L113 117L105 117Z" fill="#F7D047" stroke="#2D2D2D" stroke-width="2" stroke-miterlimit="10"/>
<path d="M90 37H39V43H90V37Z" fill="white" stroke="#2D2D2D" stroke-width="2" stroke-miterlimit="10"/>
<path d="M39 37H11V43H39V37Z" fill="#0FB6CD" stroke="#2D2D2D" stroke-width="2" stroke-miterlimit="10"/>
<path d="M67 49H28V55H67V49Z" fill="white" stroke="#2D2D2D" stroke-width="2" stroke-miterlimit="10"/>
<path d="M28 49H11V55H28V49Z" fill="#0FB6CD" stroke="#2D2D2D" stroke-width="2" stroke-miterlimit="10"/>
<path d="M142.892 86.3436C149.53 87.2807 155.76 90.1044 160.839 94.479C165.919 98.8536 169.636 104.595 171.547 111.021C173.459 117.446 173.484 124.286 171.622 130.725C169.759 137.165 166.086 142.935 161.039 147.348L151.794 136.775C154.816 134.133 157.015 130.679 158.13 126.823C159.246 122.967 159.23 118.872 158.086 115.025C156.941 111.178 154.716 107.74 151.675 105.121C148.633 102.502 144.904 100.811 140.929 100.25L142.892 86.3436Z" fill="#E9552A" stroke="#2D2D2D" stroke-width="3"/>
<path d="M162.749 145.749C158.008 150.489 152.006 153.768 145.456 155.197C138.907 156.625 132.084 156.142 125.801 153.805C119.517 151.469 114.037 147.377 110.012 142.016C105.986 136.655 103.585 130.251 103.094 123.565L117.101 122.536C117.395 126.539 118.832 130.373 121.243 133.583C123.653 136.793 126.934 139.243 130.696 140.642C134.458 142.041 138.543 142.33 142.464 141.475C146.386 140.619 149.98 138.656 152.818 135.818L162.749 145.749Z" fill="#F7D047" stroke="#2D2D2D" stroke-width="3"/>
<path d="M103.39 126.208C102.536 120.535 103.09 114.74 105.003 109.331C106.915 103.922 110.128 99.0669 114.358 95.1918C118.588 91.3167 123.706 88.5408 129.261 87.1085C134.816 85.6761 140.638 85.6312 146.215 86.9777L142.919 100.63C139.58 99.8235 136.094 99.8504 132.768 100.708C129.442 101.566 126.378 103.228 123.845 105.548C121.312 107.868 119.388 110.775 118.243 114.013C117.098 117.252 116.767 120.722 117.278 124.118L103.39 126.208Z" fill="#0FB6CD" stroke="#2D2D2D" stroke-width="3"/>
<path fill-rule="evenodd" clip-rule="evenodd" d="M138 142C149.598 142 159 132.598 159 121C159 109.402 149.598 100 138 100C126.402 100 117 109.402 117 121C117 132.598 126.402 142 138 142ZM138.001 132.667C144.444 132.667 149.667 127.443 149.667 121C149.667 114.557 144.444 109.333 138.001 109.333C131.557 109.333 126.334 114.557 126.334 121C126.334 127.443 131.557 132.667 138.001 132.667Z" fill="#C9F8FF"/>
<path d="M157.5 121C157.5 131.77 148.769 140.5 138 140.5V143.5C150.426 143.5 160.5 133.426 160.5 121H157.5ZM138 101.5C148.769 101.5 157.5 110.23 157.5 121H160.5C160.5 108.574 150.426 98.5 138 98.5V101.5ZM118.5 121C118.5 110.23 127.23 101.5 138 101.5V98.5C125.573 98.5 115.5 108.574 115.5 121H118.5ZM138 140.5C127.23 140.5 118.5 131.77 118.5 121H115.5C115.5 133.426 125.573 143.5 138 143.5V140.5ZM148.167 121C148.167 126.615 143.615 131.167 138.001 131.167V134.167C145.272 134.167 151.167 128.272 151.167 121H148.167ZM138.001 110.833C143.615 110.833 148.167 115.385 148.167 121H151.167C151.167 113.728 145.272 107.833 138.001 107.833V110.833ZM127.834 121C127.834 115.385 132.386 110.833 138.001 110.833V107.833C130.729 107.833 124.834 113.728 124.834 121H127.834ZM138.001 131.167C132.386 131.167 127.834 126.615 127.834 121H124.834C124.834 128.272 130.729 134.167 138.001 134.167V131.167Z" fill="#2D2D2D"/>
<path d="M92 61.5C92 64.5376 89.5376 67 86.5 67C83.4624 67 81 64.5376 81 61.5C81 58.4624 83.4624 56 86.5 56C88.076 56 89.4972 56.6629 90.5 57.7251C91.4299 58.7101 92 60.0385 92 61.5Z" fill="#F7D047"/>
<path d="M115 38C115 39.3627 114.455 40.5981 113.571 41.5C112.663 42.4257 111.399 43 110 43C108.601 43 107.337 42.4257 106.429 41.5C105.545 40.5981 105 39.3627 105 38C105 35.2386 107.239 33 110 33C112.761 33 115 35.2386 115 38Z" fill="#F7D047"/>
<path d="M131 53.5C131 56.5376 128.538 59 125.5 59C122.462 59 120 56.5376 120 53.5C120 51.9632 120.63 50.5737 121.646 49.5757C122.639 48.6011 123.999 48 125.5 48C127.076 48 128.497 48.6629 129.5 49.7251C130.43 50.7101 131 52.0385 131 53.5Z" fill="#F7D047"/>
<path d="M175 18C175 26.8366 167.837 34 159 34C154.639 34 150.685 32.2552 147.799 29.4257C144.838 26.5219 143 22.4755 143 18C143 9.16344 150.163 2 159 2C167.837 2 175 9.16344 175 18Z" fill="#F7D047"/>
<path d="M90.5 57.7251C89.4972 56.6629 88.076 56 86.5 56C83.4624 56 81 58.4624 81 61.5C81 64.5376 83.4624 67 86.5 67C89.5376 67 92 64.5376 92 61.5C92 60.0385 91.4299 58.7101 90.5 57.7251ZM90.5 57.7251L106.429 41.5M106.429 41.5C107.337 42.4257 108.601 43 110 43C111.399 43 112.663 42.4257 113.571 41.5M106.429 41.5C105.545 40.5981 105 39.3627 105 38C105 35.2386 107.239 33 110 33C112.761 33 115 35.2386 115 38C115 39.3627 114.455 40.5981 113.571 41.5M113.571 41.5L121.646 49.5757M121.646 49.5757C120.63 50.5737 120 51.9632 120 53.5C120 56.5376 122.462 59 125.5 59C128.538 59 131 56.5376 131 53.5C131 52.0385 130.43 50.7101 129.5 49.7251M121.646 49.5757C122.639 48.6011 123.999 48 125.5 48C127.076 48 128.497 48.6629 129.5 49.7251M129.5 49.7251L147.799 29.4257M147.799 29.4257C150.685 32.2552 154.639 34 159 34C167.837 34 175 26.8366 175 18C175 9.16344 167.837 2 159 2C150.163 2 143 9.16344 143 18C143 22.4755 144.838 26.5218 147.799 29.4257Z" stroke="#2D2D2D" stroke-width="3"/>
</svg>
